<?xml version="1.0" encoding="UTF-8"?><svg version="1.1" width="128px" height="40px" viewBox="0 0 128.0 40.0" xmlns="http://www.w3.org/2000/svg" xmlns:xlink="http://www.w3.org/1999/xlink"><defs><clipPath id="i0"><path d="M1512,0 L1512,1004 L0,1004 L0,0 L1512,0 Z"></path></clipPath><clipPath id="i1"><path d="M716,0 C721.522847,-1.01453063e-15 726,4.4771525 726,10 L726,531 C726,536.522847 721.522847,541 716,541 L10,541 C4.4771525,541 9.55813795e-15,536.522847 0,531 L0,10 C-6.76353751e-16,4.4771525 4.4771525,8.11995798e-15 10,0 L716,0 Z"></path></clipPath><clipPath id="i2"><path d="M8.92373333,0 C13.3184,0 17.504,2.6914911 17.504,8.75823398 C17.4922767,10.1150072 17.3094399,11.4645918 16.96,12.7736948 L4.65706667,12.7736948 C4.7296,16.3318635 6.2784,18.0739289 9.8368,18.0739289 C11.9424896,18.0414269 14.0202842,17.5771117 15.9466667,16.7085851 L17.3290667,20.8459905 C14.4,22.0523708 11.8869333,22.5227285 9.58506667,22.5227285 C3.264,22.5227285 0,18.5921934 0,12.5254505 L0,9.96243671 C0,3.93706789 3.43253333,0 8.92373333,0 Z M8.91306667,4.1504709 C6.36373333,4.1504709 4.89813333,5.90342425 4.68906667,9.02172138 L12.7146667,9.02172138 C12.7511641,8.76724743 12.7675724,8.51019163 12.7637333,8.253035 C12.7637333,5.51799227 11.0570667,4.1504709 8.91306667,4.1504709 Z"></path></clipPath><clipPath id="i3"><path d="M9.376,0 C15.3621333,0 18.336,3.33170015 18.336,8.45990528 L18.336,10.7245903 C18.336,15.8506179 15.3642667,19.2171593 9.376,19.2171593 L5.024,19.2171593 L5.024,29.044586 L0,29.044586 L0,0 L9.376,0 Z M9.376,4.91262453 L5.024,4.91262453 L5.024,14.3132451 L9.376,14.3132451 C11.8464,14.3132451 13.1861333,12.9870978 13.1861333,10.7245903 L13.1861333,8.45990528 C13.1861333,6.23659426 11.8464,4.91262453 9.376,4.91262453 Z"></path></clipPath><clipPath id="i4"><path d="M9.2928,0 C15.2362667,0 18.5834667,3.91964723 18.5834667,9.95590397 L18.5834667,12.5189177 C18.5834667,18.5856606 15.1936,22.5161958 9.2928,22.5161958 C3.34933333,22.5161958 0,18.5856606 0,12.5189177 L0,9.95590397 C0,3.93053514 3.30666667,0 9.2928,0 Z M9.2928,4.40089281 C6.48746667,4.40089281 4.93866667,6.49354891 4.93866667,9.95590397 L4.93866667,12.5189177 C4.93866667,15.9790952 6.48746667,18.115303 9.2928,18.115303 C12.0981333,18.115303 13.6448,15.9790952 13.6448,12.5189177 L13.6448,9.95590397 C13.6448,6.49354891 12.096,4.40089281 9.2928,4.40089281 Z"></path></clipPath><clipPath id="i5"><path d="M8.62293333,0 C10.7157333,0 12.8512,0.511731722 15.2789333,1.49599869 L13.8965333,5.72486254 C11.8464,4.91262453 10.2144,4.52937013 8.87466667,4.52937013 C6.0288,4.52937013 4.82133333,6.32369753 4.82133333,9.99727802 L4.82133333,12.5254505 C4.82133333,16.199031 6.0352,17.9933584 8.87466667,17.9933584 C10.2570667,17.9933584 12.0128,17.651478 14.1056,16.83924 L15.488,20.9766454 C12.9770667,22.0001089 10.7946667,22.5140182 8.62293333,22.5140182 C3.0144,22.5140182 0,18.583483 0,12.5167402 L0,10.0038108 C0,3.93706789 3.0144,0 8.62293333,0 Z"></path></clipPath><clipPath id="i6"><path d="M0,0 L19.2576,8.0505199 L19.3962667,30.7779411 L0.138666667,22.7274212 L0,0 Z"></path></clipPath><clipPath id="i7"><path d="M16.0085333,0 L16.1472,22.7274212 L0.138666667,31.9516577 L0,9.22423649 L16.0085333,0 Z"></path></clipPath><clipPath id="i8"><path d="M16.0064,0 L35.2661333,8.04834232 L19.2576,17.2725788 L0,9.2220589 L16.0064,0 Z"></path></clipPath><clipPath id="i9"><path d="M0,0 L11.9466667,4.99319506 L11.9448235,5.21884479 L11.9445163,5.60136752 C11.94496,5.72669171 11.9458133,5.85856606 11.9466667,6.02319125 L0,1.03217377 L0,0 Z"></path></clipPath><clipPath id="i10"><path d="M0,0 L11.9466667,4.99101748 L11.9448235,5.21772987 L11.9445163,5.60122816 C11.94496,5.72669171 11.9458133,5.85856606 11.9466667,6.02319125 L0,1.03217377 L0,0 Z"></path></clipPath><clipPath id="i11"><path d="M0,0 L11.9466667,4.99101748 L11.9466667,6.02319125 L0,1.03217377 L0,0 Z"></path></clipPath><clipPath id="i12"><path d="M0,0 L5.88373333,2.47808808 L5.89013333,3.51026185 L0.0064,1.02999619 L0,0 Z"></path></clipPath><clipPath id="i13"><path d="M1.89522436,1.37288509 C4.79015769,-0.297320143 9.98269102,-0.464993941 13.4664244,0.987453117 C16.9501577,2.43990017 17.4301577,4.98113813 14.533091,6.64916578 C11.6360244,8.31719344 6.44775769,8.48704482 2.96189102,7.03459776 C-0.523975644,5.58215071 -1.00184231,3.04091275 1.89522436,1.37288509 Z"></path></clipPath><clipPath id="i14"><path d="M6.752,0 L5.536,3.45146715 L0,1.13887528 L6.752,0 Z"></path></clipPath><clipPath id="i15"><path d="M6.10346667,0 L6.10346667,0.860144809 L0.657066667,3.9827971 C0.674133333,7.12069247 0.6848,8.69072895 0.704,11.8220916 L6.39573333,8.56878436 C6.38506667,6.82671893 6.3808,5.97310686 6.37013333,4.24410692 L7.01013333,3.87174043 L7.0528,9.0674506 L0.0576,13.0654908 C0.0341333333,9.23730198 0.0234666667,7.32103 0,3.48413087 L6.10346667,0 Z"></path></clipPath><clipPath id="i16"><path d="M6.89461876,0.0275403862 C7.02688542,0.114643658 7.03541876,0.384663801 6.91381876,0.628552962 L2.26528542,9.93335997 C2.21511875,10.0464372 2.13255689,10.1413407 2.02848542,10.2055577 C1.9651839,10.2492806 1.88380387,10.2550953 1.81515209,10.2208008 L0.108485423,9.16031844 C-0.0259145769,9.07539275 -0.0365812435,8.80972777 0.0828854231,8.56366102 C0.20235209,8.31759428 0.40715209,8.18693937 0.54155209,8.26968748 L2.01141876,9.18209425 L6.43381876,0.31062602 C6.55541876,0.0667368585 6.76235209,-0.0595628856 6.89461876,0.0275403862 Z"></path></clipPath></defs><g transform="translate(-446.0 -272.0)"><rect x="0px" y="0px" width="1512px" height="1004px" fill="#E5E9EE"></rect><g clip-path="url(#i0)"><g transform="translate(393.0 232.0)"><g clip-path="url(#i1)"><polygon points="0,0 726,0 726,541 0,541 0,0" stroke="none" fill="#FFFFFF"></polygon></g><g transform="translate(53.0 40.0)"><g transform="translate(49.74293333333346 9.3636017202897)"><g clip-path="url(#i2)"><polygon points="0,0 17.504,0 17.504,22.5227285 0,22.5227285 0,0" stroke="none" fill="#354259"></polygon></g></g><g transform="translate(71.08053333333336 2.4062278839348856)"><g clip-path="url(#i3)"><polygon points="0,0 18.336,0 18.336,29.044586 0,29.044586 0,0" stroke="none" fill="#354259"></polygon></g></g><g transform="translate(91.56480000000002 9.370134465675868)"><g clip-path="url(#i4)"><polygon points="0,0 18.5834667,0 18.5834667,22.5161958 0,22.5161958 0,0" stroke="none" fill="#354259"></polygon></g></g><g transform="translate(112.512 9.36360172028962)"><g clip-path="url(#i5)"><polygon points="0,0 15.488,0 15.488,22.5140182 0,22.5140182 0,0" stroke="none" fill="#354259"></polygon></g></g><g transform="translate(0.0 9.22205890358756)"><g clip-path="url(#i6)"><polygon points="0,0 19.3962667,0 19.3962667,30.7779411 0,30.7779411 0,0" stroke="none" fill="#FE0000"></polygon></g></g><g transform="translate(19.25760000000004 8.048342315858232)"><g clip-path="url(#i7)"><polygon points="0,0 16.1472,0 16.1472,31.9516577 0,31.9516577 0,0" stroke="none" fill="#354259"></polygon></g></g><g transform=""><g clip-path="url(#i8)"><polygon points="0,0 35.2661333,0 35.2661333,17.2725788 0,17.2725788 0,0" stroke="none" fill="#6FCECB"></polygon></g></g><g transform="translate(3.3685333333332226 15.798355925744449)"><g clip-path="url(#i9)"><polygon points="0,0 11.9466667,0 11.9466667,6.02319125 0,6.02319125 0,0" stroke="none" fill="#FFFFFF"></polygon></g></g><g transform="translate(3.3877333333332045 19.06472861886873)"><g clip-path="url(#i10)"><polygon points="0,0 11.9466667,0 11.9466667,6.02319125 0,6.02319125 0,0" stroke="none" fill="#FFFFFF"></polygon></g></g><g transform="translate(3.4133333333333793 22.33110131199303)"><g clip-path="url(#i11)"><polygon points="0,0 11.9466667,0 11.9466667,6.02319125 0,6.02319125 0,0" stroke="none" fill="#FFFFFF"></polygon></g></g><g transform="translate(3.4239999999999675 25.59747400511731)"><g clip-path="url(#i12)"><polygon points="0,0 5.89013333,0 5.89013333,3.51026185 0,3.51026185 0,0" stroke="none" fill="#FFFFFF"></polygon></g></g><g transform="translate(9.245042310549534 4.693857787457463)"><g clip-path="url(#i13)"><polygon points="-6.66133815e-16,0 16.4276222,0 16.4276222,8.02131249 -6.66133815e-16,8.02131249 -6.66133815e-16,0" stroke="none" fill="#354259"></polygon></g></g><g transform="translate(13.311999999999962 7.205618161032175)"><g clip-path="url(#i14)"><polygon points="0,0 6.752,0 6.752,3.45146715 0,3.45146715 0,0" stroke="none" fill="#FFFFFF"></polygon></g></g><g transform="translate(23.80800000000004 18.27208884533724)"><g clip-path="url(#i15)"><polygon points="0,0 7.0528,0 7.0528,13.0654908 0,13.0654908 0,0" stroke="none" fill="#FFFFFF"></polygon></g></g><g transform="translate(25.37844791019979 16.47852962306598)"><g clip-path="url(#i16)"><polygon points="5.55111512e-17,4.99600361e-16 6.99970266,4.99600361e-16 6.99970266,10.242968 5.55111512e-17,10.242968 5.55111512e-17,4.99600361e-16" stroke="none" fill="#FFFFFF"></polygon></g></g></g></g></g></g></svg>