<?xml version="1.0" encoding="UTF-8"?><svg version="1.1" width="117px" height="40px" viewBox="0 0 117.0 40.0" xmlns="http://www.w3.org/2000/svg" xmlns:xlink="http://www.w3.org/1999/xlink"><defs><clipPath id="i0"><path d="M1512,0 L1512,1004 L0,1004 L0,0 L1512,0 Z"></path></clipPath><clipPath id="i1"><path d="M2.72645107,0 L2.72645107,15.160597 L0,15.160597 L0,0 L2.72645107,0 Z"></path></clipPath><clipPath id="i2"><path d="M8.86096599,1.05247771 C9.48950035,1.89285285 9.79630204,2.92726472 9.72661421,3.97109532 L9.72661421,11.5513938 L7.11603731,11.5513938 L7.11603731,4.30889828 C7.15469457,3.80887954 7.02003939,3.31075603 6.73433415,2.89688189 C6.44032224,2.56395329 6.00757632,2.38440025 5.56196019,2.41044563 C5.07824907,2.4190147 4.60192146,2.52956219 4.16465402,2.73473647 C3.59759835,3.006337 3.06267239,3.33941879 2.56968014,3.72787719 L2.56968014,11.5513938 L0,11.5513938 L0,0.255262715 L2.44698984,0.255262715 L2.44698984,1.76861999 C3.04129795,1.22554159 3.71166133,0.770434964 4.43729912,0.417408138 C5.04129537,0.146527422 5.69650081,0.006047596 6.35944713,0.00528852145 C7.31224872,-0.0504381374 8.23692247,0.33665003 8.86096599,1.05247771 Z"></path></clipPath><clipPath id="i3"><path d="M6.42760841,0 L6.42760841,2.56059301 C5.02499851,2.54450099 3.66234586,3.02345277 2.58331239,3.91180486 L2.58331239,11.5258837 L0,11.5258837 L0,0.229752556 L2.44698984,0.229752556 L2.44698984,1.96605979 C3.05546441,1.37116784 3.74351003,0.861954542 4.49182815,0.452702512 C5.09183784,0.152053388 5.7552945,-0.00308695819 6.42760841,0 Z"></path></clipPath><clipPath id="i4"><path d="M2.66510593,4.80355815 L2.66510593,16.0996893 L0.0749774046,16.0996893 L0.0749774046,4.80355815 L2.66510593,4.80355815 Z M2.72645107,0 L2.72645107,2.6551313 L0,2.6551313 L0,0 L2.72645107,0 Z"></path></clipPath><clipPath id="i5"><path d="M7.83545167,1.01270912 C8.59683629,1.81890138 8.98251095,2.9044667 8.89876759,4.00564338 L8.89876759,8.34303344 C8.8862796,8.59167535 8.97463383,8.83494089 9.14414819,9.01863937 C9.32712312,9.19113609 9.57357681,9.28152034 9.82576096,9.26861356 L10.0711416,9.26861356 L10.0847738,11.6399904 L9.57356423,11.6399904 C8.95563297,11.6603338 8.34354565,11.5156608 7.80137103,11.2211147 C7.32397434,10.9460755 6.95052338,10.5237136 6.73805512,10.0185361 C6.17998986,10.5654989 5.53816138,11.0215363 4.83635549,11.369748 C4.24046875,11.6432525 3.59132738,11.7839287 2.93465587,11.7818676 C2.11473695,11.8276898 1.31873237,11.4991515 0.773943389,10.8900678 C0.21319549,10.1624585 -0.0584669183,9.25608207 0.0105370885,8.34303344 C-0.0657567172,7.40278717 0.29577286,6.47955488 0.992059475,5.83653545 C1.85251104,5.2325066 2.89896698,4.94571384 3.95025889,5.02580833 C4.32162925,5.02636255 4.69263403,5.048923 5.0612877,5.09336893 C5.45662311,5.13390528 5.91330367,5.20146588 6.42451324,5.28929465 L6.42451324,3.99888732 C6.46400557,3.53684216 6.29416256,3.08131705 5.96101656,2.75577242 C5.5329333,2.46161923 5.01442978,2.32536693 4.49554911,2.37067704 C3.9808769,2.37399696 3.46839712,2.43749239 2.9687365,2.5598467 C2.39627653,2.69091516 1.83725216,2.87410669 1.29878522,3.1070875 L0.576275687,0.911368232 C1.27359587,0.625985494 1.99416352,0.399967294 2.73017204,0.235762304 C3.37209195,0.0909438901 4.02807205,0.0161823155 4.68640068,0.0128123477 C5.82753629,-0.074218886 6.95774886,0.284649835 7.83545167,1.01270912 Z M2.90057523,7.24855184 C2.60384485,7.53233112 2.45765144,7.93706592 2.50523982,8.34303344 C2.48529668,8.68404623 2.58129548,9.02183863 2.77788493,9.30239386 C2.97087636,9.53043759 3.26212087,9.65343945 3.56173961,9.63344076 C4.03991566,9.62771883 4.50886456,9.50221846 4.92496515,9.26861356 C5.46702802,8.94922987 5.96627493,8.56333985 6.41088099,8.12008349 L6.41088099,7.14045489 C6.02800982,7.06637497 5.64110572,7.01449043 5.25213928,6.98506553 C4.87725226,6.95128523 4.49554911,6.93777311 4.12747821,6.93777311 L4.12747821,6.91074887 C3.69121455,6.87741643 3.25699256,6.99697069 2.90057523,7.24855184 Z"></path></clipPath><clipPath id="i6"><path d="M2.72645107,0 L2.72645107,12.5932945 L8.86096599,12.5932945 L8.86096599,15.160597 L0,15.160597 L0,0 L2.72645107,0 Z"></path></clipPath><clipPath id="i7"><path d="M4.80098418,0.00504128342 C6.03045045,-0.0467713351 7.22923829,0.393942635 8.12725449,1.22788801 C9.02076583,2.12130794 9.48698237,3.35031837 9.4086865,4.60591765 C9.40649031,4.94948591 9.38144352,5.29253689 9.33370909,5.63283866 C9.28136946,5.9924498 9.20854777,6.34883825 9.11559301,6.70029603 L2.50394915,6.70029603 C2.46831122,7.46599924 2.72644746,8.21668686 3.22645869,8.80143047 C3.7902706,9.28726737 4.52615356,9.53039999 5.27129699,9.4770364 C5.81265111,9.47531824 6.35214588,9.41414031 6.87990313,9.2946228 C7.47553304,9.15407336 8.05551056,8.95490706 8.61119956,8.70008958 L9.35415748,10.8620285 C8.66517118,11.1509492 7.95107356,11.3770848 7.22070951,11.5376345 C6.54761234,11.6733372 5.86274152,11.7434835 5.17587121,11.7470723 C3.77408819,11.8374938 2.39714134,11.3483138 1.37247196,10.3958605 C0.416408122,9.34747694 -0.0747648703,7.96240451 0.00924641918,6.55166273 L0.00924641918,5.20045087 C-0.0624235094,3.82165868 0.400953295,2.46795238 1.30431068,1.41705767 C2.20346981,0.459333065 3.48258985,-0.0571974204 4.80098418,0.00504128342 Z M4.83506482,2.1264439 C4.22860734,2.10591985 3.64427813,2.35343254 3.24009094,2.80204983 C2.80608014,3.33683489 2.56602132,4.00069658 2.55847817,4.68699037 L6.873087,4.68699037 C6.8811474,4.63550199 6.8811474,4.58308938 6.873087,4.531601 L6.90035151,4.26811469 C6.93193811,3.69476821 6.73065899,3.13274716 6.34142904,2.707465 C5.94387614,2.31275514 5.39721589,2.10190232 4.83506482,2.1264439 Z"></path></clipPath><clipPath id="i8"><path d="M7.84201556,1.01214304 C8.5969447,1.81912127 8.97962035,2.90074732 8.89851535,3.99832125 L8.89851535,8.34246736 C8.87269752,8.59852258 8.9641887,8.85254432 9.14776686,9.03450467 C9.33134503,9.21646501 9.58762528,9.3071499 9.84595709,9.2815596 L10.0913377,9.2815596 L10.0913377,11.6394243 L9.57331199,11.6394243 C8.95746923,11.660559 8.34736741,11.5157986 7.80793492,11.2205486 C7.32701607,10.9478385 6.95072548,10.5249757 6.73780287,10.0179701 C6.17973762,10.5649328 5.53790914,11.0209703 4.83610325,11.3691819 C4.2402165,11.6426864 3.59107513,11.7833626 2.93440362,11.7813015 C2.11881727,11.815037 1.33261289,11.4764379 0.800955655,10.8624775 C0.236894824,10.1457785 -0.0442128549,9.24983778 0.0102848429,8.34246736 C-0.0670341541,7.40207299 0.294663072,6.47841258 0.99180723,5.83596937 C1.85275655,5.23298114 2.89882702,4.94629401 3.95000665,5.02524226 C4.321377,5.02579647 4.69238179,5.04835692 5.06103546,5.09280285 C5.46318699,5.1333392 5.91305142,5.2008998 6.424261,5.28872857 L6.424261,3.99156519 C6.46264032,3.53167389 6.29281266,3.07866541 5.96076431,2.75520634 C5.53639318,2.46411193 5.02325944,2.32800458 4.50892912,2.37011096 C3.99425691,2.37343088 3.48177713,2.43692631 2.98211651,2.55928062 C2.41191478,2.69052552 1.85516925,2.87371801 1.31898136,3.10652142 L0.576023441,0.910802154 C1.27564967,0.625331824 1.99848854,0.399316457 2.73673592,0.235196226 C3.37859103,0.090002015 4.03461299,0.0152356695 4.69296456,0.0122462696 C5.83384263,-0.0726146891 6.96325007,0.285998383 7.84201556,1.01214304 Z M2.90032298,7.24798576 C2.60608296,7.53303499 2.46247149,7.93759694 2.5118037,8.34246736 C2.4898701,8.68270237 2.58344977,9.02042564 2.77763268,9.30182778 C2.97342244,9.53006452 3.26672567,9.652868 3.5683035,9.63287469 C4.04647954,9.62715275 4.51542844,9.50165238 4.93152903,9.26804748 C5.47455533,8.9500637 5.97397381,8.56404107 6.41744487,8.11951741 L6.41744487,7.13988881 C6.03464841,7.06536118 5.6477176,7.01347306 5.25870316,6.98449945 C4.89063227,6.95071915 4.50211299,6.93720703 4.12722597,6.93720703 L4.12722597,6.9101828 C3.69096231,6.87685036 3.25674032,6.99640461 2.90032298,7.24798576 Z"></path></clipPath><clipPath id="i9"><path d="M6.42760841,0 L6.42760841,2.56059301 C5.73146856,2.55579841 5.03971194,2.67007515 4.3827701,2.89839597 C3.72187949,3.13170379 3.10800001,3.47940067 2.56968014,3.92531698 L2.56968014,11.5258837 L0,11.5258837 L0,0.229752556 L2.44698984,0.229752556 L2.44698984,1.96605979 C3.05546441,1.37116784 3.74351003,0.861954542 4.49182815,0.452702512 C5.09183784,0.152053388 5.7552945,-0.00308695819 6.42760841,0 Z"></path></clipPath><clipPath id="i10"><path d="M8.85414987,1.03302305 C9.45843965,1.8896753 9.73622589,2.93117195 9.63800455,3.97190884 L9.63800455,11.5522073 L7.07514054,11.5522073 L7.07514054,4.3097118 C7.11519518,3.80858232 6.97781151,3.30928151 6.68662126,2.89769541 C6.40197933,2.57184763 5.98277454,2.39270539 5.54832794,2.41125914 C5.0761563,2.42454818 4.61192729,2.53498128 4.1851024,2.73554999 C3.61804674,3.00715052 3.08312078,3.34023231 2.59012852,3.7286907 L2.59012852,11.5522073 L0,11.5522073 L0,0.256076231 L2.45380597,0.256076231 L2.45380597,1.76943351 C3.04811408,1.22635511 3.71847746,0.77124848 4.44411525,0.418221654 C5.04811149,0.147340938 5.70331694,0.00686111252 6.36626326,0.00610203797 C7.31151707,-0.053496777 8.2309743,0.326026123 8.85414987,1.03302305 Z"></path></clipPath><clipPath id="i11"><path d="M2.6582898,4.79680209 L2.6582898,16.0996893 L0.0681612769,16.0996893 L0.0681612769,4.80355815 L2.6582898,4.79680209 Z M2.72645107,0 L2.72645107,2.6551313 L0,2.6551313 L0,0 L2.72645107,0 Z"></path></clipPath><clipPath id="i12"><path d="M8.85414987,1.0328267 C9.48000731,1.87452049 9.7865149,2.90794081 9.71979808,3.95144431 L9.71979808,11.552011 L7.12966956,11.552011 L7.12966956,4.30951545 C7.16252161,3.79356632 7.00775678,3.28302883 6.69343739,2.87047483 C6.40206266,2.55272643 5.98064975,2.38365773 5.54832794,2.4110628 C5.07597076,2.42295842 4.61145458,2.53345983 4.1851024,2.73535364 C3.61718367,3.00540602 3.08208829,3.3385933 2.59012852,3.72849436 L2.59012852,11.552011 L0,11.552011 L0,0.255879885 L2.45380597,0.255879885 L2.45380597,1.76923716 C3.04690134,1.22465165 3.71749791,0.769386712 4.44411525,0.418025308 C5.04764691,0.145752799 5.70315967,0.00520708467 6.36626326,0.00590569149 C7.31134047,-0.0526470928 8.23034964,0.326690867 8.85414987,1.0328267 Z"></path></clipPath><clipPath id="i13"><path d="M4.49864427,0.0059797997 L4.88034742,0.0059797997 C5.18107223,0.00632033364 5.48151107,0.024368283 5.78007628,0.060028274 C6.0455472,0.0951812923 6.30769554,0.151667836 6.56393096,0.228929756 L10.6536076,0.228929756 L10.6536076,2.4111369 L8.40428544,2.05306576 C8.64480038,2.32762597 8.8278402,2.64684518 8.94275953,2.992158 C9.06866782,3.38747787 9.12853032,3.80054042 9.11997884,4.21500473 C9.15553438,5.22415802 8.72064955,6.19340284 7.94078876,6.84311179 C7.08344567,7.53581176 5.99898041,7.89170978 4.89397968,7.84300857 L4.06922823,7.84300857 L3.65344444,7.80247221 C3.5099011,7.95606533 3.39249643,8.13176123 3.30582193,8.32268877 C3.2277182,8.49490578 3.18596631,8.68113352 3.18313163,8.86992958 C3.16650118,9.09426547 3.26360597,9.31209224 3.44214448,9.45095067 C3.62157772,9.56650913 3.82731199,9.63360437 4.03908717,9.64698984 L6.92518573,9.64687639 C7.84119066,9.59936361 8.74236244,9.89068662 9.4539691,10.4643596 C10.0739809,11.0243312 10.4089923,11.8296982 10.3673302,12.6600788 C10.4115177,13.7810729 9.87404071,14.8465537 8.94275953,15.4841116 C7.758872,16.2224623 6.37223603,16.5766933 4.97577321,16.4975205 C4.07624613,16.4993196 3.17956718,16.3972916 2.30385116,16.1934978 C1.4990902,16.0160464 0.723532766,15.7272068 0,15.3354783 L0.742957918,13.3086605 C1.39593103,13.6278404 2.08143215,13.8769757 2.78779622,14.051827 C3.48551558,14.224429 4.20212576,14.3106629 4.92124419,14.3085573 C5.65745282,14.3439692 6.39257349,14.2194544 7.07514054,13.9437301 C7.51466049,13.792333 7.81696506,13.3910288 7.83854684,12.9303212 C7.85775022,12.65954 7.74955355,12.3951731 7.54545335,12.2141789 C7.29916598,12.0362666 6.9974678,11.9501433 6.69343739,11.9709608 L3.96698631,11.9709608 C3.1555136,12.0205087 2.35290244,11.7808888 1.70403192,11.2953549 C1.18390543,10.8448261 0.902274809,10.1818479 0.940625621,9.49824309 C0.943282522,9.09129775 1.03637103,8.6899313 1.21327073,8.32268877 C1.41345348,7.91472546 1.68065082,7.54257593 2.00394154,7.22145111 C1.45072217,6.89662933 0.996229499,6.42980305 0.688428896,5.87023926 C0.370239649,5.27343764 0.210722437,4.60611437 0.224932214,3.93125024 C0.168065564,2.85010921 0.591467472,1.79846406 1.38367392,1.05316899 C2.24865995,0.322070254 3.3634131,-0.0526869057 4.49864427,0.0059797997 Z M4.85989904,2.09360212 L4.47819589,2.09360212 C3.99939822,2.07580802 3.53486344,2.25704543 3.19676389,2.5935505 C2.53049797,3.35540244 2.53049797,4.48682987 3.19676389,5.2486818 C3.53486344,5.58518687 3.99939822,5.76642428 4.47819589,5.74863019 L4.85989904,5.74863019 C5.33196178,5.76237963 5.78861081,5.58132974 6.12088266,5.2486818 C6.78714857,4.48682987 6.78714857,3.35540244 6.12088266,2.5935505 C5.78861081,2.26090256 5.33196178,2.07985268 4.85989904,2.09360212 Z"></path></clipPath><clipPath id="i14"><path d="M2.72645107,0 L2.69918656,12.5932945 L8.83370148,12.5932945 L8.83370148,15.160597 L0,15.160597 L0,0 L2.72645107,0 Z"></path></clipPath><clipPath id="i15"><path d="M7.86221336,1.01270912 C8.63062,1.8106652 9.02622367,2.89143862 8.95279379,3.99213126 L8.95279379,8.34303344 C8.92950623,8.59847647 9.02181846,8.85098644 9.20479239,9.03234787 C9.38776631,9.2137093 9.64252135,9.30520802 9.90023554,9.28212568 L10.1456161,9.28212568 L10.1115355,11.6399904 L9.59350979,11.6399904 C8.97766704,11.6611251 8.36756522,11.5163647 7.82813272,11.2211147 C7.35073603,10.9460755 6.97728506,10.5237136 6.7648168,10.0185361 C6.20675155,10.5654989 5.56492307,11.0215363 4.86311718,11.369748 C4.26723044,11.6432525 3.61808907,11.7839287 2.96141756,11.7818676 C2.12744285,11.8305249 1.3183138,11.4907374 0.773440568,10.8630436 C0.22385572,10.1479619 -0.0471862703,9.26044622 0.0100342669,8.36330162 C-0.0659587608,7.42443825 0.292663045,6.50222724 0.984740526,5.85680363 C1.84618372,5.25484934 2.89187248,4.96826682 3.94293994,5.04607651 C4.31657596,5.04663451 4.68984855,5.06919445 5.06078488,5.11363711 C5.45612029,5.15417346 5.91280084,5.22173405 6.42401042,5.30956282 L6.42401042,3.99213126 C6.46512157,3.53316808 6.29770494,3.07992558 5.96732987,2.75577242 C5.54295874,2.46467801 5.02982499,2.32857066 4.51549467,2.37067704 C3.99857388,2.37396805 3.48383417,2.43746004 2.98186594,2.5598467 C2.41195413,2.69211087 1.85530128,2.87527286 1.31873078,3.1070875 L0.596221248,0.911368232 C1.29620056,0.626863521 2.01895619,0.400874181 2.75693372,0.235762304 C3.39885364,0.0909438901 4.05483374,0.0161823155 4.71316237,0.0128123477 C5.85429798,-0.074218886 6.98451055,0.284649835 7.86221336,1.01270912 Z M2.92733692,7.24855184 C2.64190751,7.51996433 2.49644446,7.90527597 2.53200151,8.29574103 C2.5087768,8.63709982 2.60507589,8.97594885 2.80464662,9.25510144 C2.99763805,9.48314517 3.28888256,9.60614704 3.5885013,9.58614835 C4.06655504,9.57955572 4.53528981,9.45411265 4.95172684,9.22132115 C5.49248754,8.90304282 5.98961458,8.5170206 6.43082655,8.07279107 L6.43082655,7.14045489 C6.04803009,7.06592726 5.66109928,7.01403914 5.27208484,6.98506553 C4.90401395,6.95128523 4.52912692,6.93777311 4.18150441,6.93777311 L4.1542399,6.91074887 C3.71780508,6.87565466 3.28298417,6.99537382 2.92733692,7.24855184 Z"></path></clipPath><clipPath id="i16"><path d="M2.58331239,0 L2.58331239,6.68849869 C3.07587151,6.15730056 3.64560521,5.701887 4.27371206,5.33728683 C4.7704502,5.07429827 5.32600762,4.93953724 5.88913432,4.94543539 C6.99377529,4.89544734 8.04859615,5.40421865 8.6905628,6.29664725 C9.43526179,7.47198787 9.78596676,8.8506215 9.69253357,10.2354298 L9.69253357,11.4380084 C9.77997193,12.8459195 9.33529015,14.2356475 8.4451822,15.3362546 C7.53711469,16.2955301 6.24605795,16.8054216 4.92124419,16.7280028 C4.09404578,16.723883 3.27110761,16.6102777 2.47425435,16.3901998 C1.6129828,16.1536868 0.782586366,15.8181066 0,15.390303 L0,0 L2.58331239,0 Z M5.17344091,7.35734856 C4.73921553,7.36379447 4.31500181,7.48760107 3.94653793,7.7154197 C3.44205533,8.04891095 2.98375795,8.44638718 2.58331239,8.89773007 L2.58331239,13.9850427 C2.93453539,14.1367937 3.29976943,14.2544486 3.67389282,14.3363578 C4.00892357,14.4145499 4.3521243,14.4531032 4.69631198,14.4512108 C5.37065284,14.4995463 6.02658878,14.2198283 6.45487292,13.7012882 C6.89231328,13.0397196 7.09827572,12.2539896 7.0410599,11.4650326 L7.0410599,10.2354298 C7.087481,9.48860133 6.92721483,8.74339014 6.57756322,8.0802469 C6.28073844,7.60009862 5.74044029,7.32193152 5.17344091,7.35734856 Z"></path></clipPath></defs><g transform="translate(-948.0 -272.0)"><g clip-path="url(#i0)"><g transform="translate(393.0 232.0)"><g transform="translate(53.0 40.0)"><g transform="translate(501.99999999999983 0.0)"><g transform="translate(5.684341886080802e-14 0.939092240098157)"><g clip-path="url(#i1)"><polygon points="0,0 2.72645107,0 2.72645107,15.160597 0,15.160597 0,0" stroke="none" fill="#F90000"></polygon></g></g><g transform="translate(6.134514918149024 4.548295434136943)"><g clip-path="url(#i2)"><polygon points="0,1.5959456e-16 9.73633242,1.5959456e-16 9.73633242,11.5513938 0,11.5513938 0,1.5959456e-16" stroke="none" fill="#F90000"></polygon></g></g><g transform="translate(18.8738575648386 4.573805593398744)"><g clip-path="url(#i3)"><polygon points="0,-4.51809016e-05 6.42760841,-4.51809016e-05 6.42760841,11.5258837 0,11.5258837 0,-4.51809016e-05" stroke="none" fill="#F90000"></polygon></g></g><g transform="translate(27.32585589651052 0.0)"><g clip-path="url(#i4)"><polygon points="0,0 2.72645107,0 2.72645107,16.0996893 0,16.0996893 0,0" stroke="none" fill="#F90000"></polygon></g></g><g transform="translate(32.31154040245548 4.5677958450245155)"><g clip-path="url(#i5)"><polygon points="1.11022302e-16,0 10.0847738,0 10.0847738,11.7860959 1.11022302e-16,11.7860959 1.11022302e-16,0" stroke="none" fill="#F90000"></polygon></g></g><g transform="translate(5.684341886080802e-14 19.85605822768302)"><g clip-path="url(#i6)"><polygon points="0,0 8.86096599,0 8.86096599,15.160597 0,15.160597 0,0" stroke="none" fill="#354258"></polygon></g></g><g transform="translate(10.528486984657953 23.50604501543843)"><g clip-path="url(#i7)"><polygon points="0,0 9.41717424,0 9.41717424,11.7577079 0,11.7577079 0,0" stroke="none" fill="#354258"></polygon></g></g><g transform="translate(21.69226571197959 23.48532791072015)"><g clip-path="url(#i8)"><polygon points="0,-1.73472348e-18 10.0913377,-1.73472348e-18 10.0913377,11.7836031 0,11.7836031 0,-1.73472348e-18" stroke="none" fill="#354258"></polygon></g></g><g transform="translate(33.71938366675914 23.49077158098361)"><g clip-path="url(#i9)"><polygon points="0,-4.51809016e-05 6.42760841,-4.51809016e-05 6.42760841,11.5258837 0,11.5258837 0,-4.51809016e-05" stroke="none" fill="#354258"></polygon></g></g><g transform="translate(42.16456587074441 23.46444790520266)"><g clip-path="url(#i10)"><polygon points="0,-3.95516953e-16 9.65735946,-3.95516953e-16 9.65735946,11.5522073 0,11.5522073 0,-3.95516953e-16" stroke="none" fill="#354258"></polygon></g></g><g transform="translate(54.85619562362575 18.91696598758623)"><g clip-path="url(#i11)"><polygon points="0,0 2.72645107,0 2.72645107,16.0996893 0,16.0996893 0,0" stroke="none" fill="#354258"></polygon></g></g><g transform="translate(60.78622671117006 23.464644251676134)"><g clip-path="url(#i12)"><polygon points="0,1.4077281e-15 9.72878155,1.4077281e-15 9.72878155,11.552011 0,11.552011 0,1.4077281e-15" stroke="none" fill="#354258"></polygon></g></g><g transform="translate(72.67355339700572 23.491594380593945)"><g clip-path="url(#i13)"><polygon points="0,0 10.6536076,0 10.6536076,16.5084056 0,16.5084056 0,0" stroke="none" fill="#354258"></polygon></g></g><g transform="translate(85.5424024697449 19.85605822768302)"><g clip-path="url(#i14)"><polygon points="0,0 8.83370148,0 8.83370148,15.160597 0,15.160597 0,0" stroke="none" fill="#354258"></polygon></g></g><g transform="translate(95.33395981646976 23.484761832609365)"><g clip-path="url(#i15)"><polygon points="-1.73472348e-18,3.46944695e-18 10.1456161,3.46944695e-18 10.1456161,11.7864638 -1.73472348e-18,11.7864638 -1.73472348e-18,3.46944695e-18" stroke="none" fill="#354258"></polygon></g></g><g transform="translate(107.2926659184267 18.518358489990028)"><g clip-path="url(#i16)"><polygon points="0,0 9.70733408,0 9.70733408,16.7356967 0,16.7356967 0,0" stroke="none" fill="#354258"></polygon></g></g></g></g></g></g></g></svg>